{"title":"Defloration - Anita Koromislo","uid":7315658,"size":249548156,"categoryP":"porn","categoryS":"movies","magnet":"?xt=urn:btih:e47e43252e5aaa8c9026b291e407663a83f8bec5&amp;dn=+Defloration+-+Anita+Koromislo&amp;tr=udp%3A%2F%2Ftracker.openbittorrent.com%3A80&amp;tr=udp%3A%2F%2Fopen.demonii.com%3A1337&amp;tr=udp%3A%2F%2Ftracker.coppersurfer.tk%3A6969&amp;tr=udp%3A%2F%2Fexodus.desync.com%3A6969","seeders":0,"leechers":1,"uploader":"soulless123","files":2,"time":1338479683,"description":"Screens \n &lt;a href=&quot;\nhttp://bayimg.com/jaOkiaaDO&quot; rel=&quot;nofollow&quot; target=&quot;_NEW&quot;&gt;\nhttp://bayimg.com/jaOkiaaDO&lt;/a&gt;\n\nSeeding Time 24/7\n\nDon't Forget To Say Thanks If You Like My Post\n\n\n\n-=Media Info=-\n\n\nFormat : AVI\nFormat/Info : Audio Video Interleave\nFile size : 238 MiB\nDuration : 31mn 13s\nOverall bit rate : 1 065 Kbps\n\nVideo\nID : 0\nFormat : MPEG-4 Visual\nFormat settings, BVOP : 1\nFormat settings, QPel : No\nFormat settings, GMC : No warppoints\nFormat settings, Matrix : Default (H.263)\nMuxing mode : Packed bitstream\nCodec ID : DX50\nCodec ID/Hint : DivX 5\nDuration : 31mn 13s\nBit rate : 934 Kbps\nWidth : 712 pixels\nHeight : 400 pixels\nDisplay aspect ratio : 16:9\nFrame rate : 25.000 fps\nColor space : YUV\nChroma subsampling : 40\nBit depth : 8 bits\nScan type : Progressive\nCompression mode : Lossy\nBits/(Pixel*Frame) : 0.131\nStream size : 209 MiB (88%)\nWriting library : DivX 6.8.5 (UTC 2009-08-20)\n\nAudio\nID : 1\nFormat : MPEG Audio\nFormat version : Version 1\nFormat profile : Layer 3\nCodec ID : 55\nCodec ID/Hint : MP3\nDuration : 31mn 9s\nBit rate mode : Constant\nBit rate : 128 Kbps\nChannel(s) : 2 channels\nSampling rate : 44.1 KHz\nCompression mode : Lossy\nStream size : 28.5 MiB (12%)\nAlignment : Split accross interleaves\nInterleave, duration : 501 ms (12.53 video frames)\nInterleave, preload duration : 750 ms","torrent":{"xt":"urn:btih:e47e43252e5aaa8c9026b291e407663a83f8bec5","amp;dn":"+Defloration+-+Anita+Koromislo","amp;tr":["udp%3A%2F%2Ftracker.openbittorrent.com%3A80","udp%3A%2F%2Fopen.demonii.com%3A1337","udp%3A%2F%2Ftracker.coppersurfer.tk%3A6969","udp%3A%2F%2Fexodus.desync.com%3A6969"],"infoHash":"e47e43252e5aaa8c9026b291e407663a83f8bec5","infoHashBuffer":{"type":"Buffer","data":[228,126,67,37,46,90,170,140,144,38,178,145,228,7,102,58,131,248,190,197]},"announce":[],"urlList":[]}}